# Rhino

mtllib test-1-polygon.mtl
usemtl diffuse_0_0_0_255
v -20 0 147
v -20 0 39
v 220 0 147
v 220 0 39
vt 0 0
vt 0 1
vt 1 0
vt 1 1
vn 0 1 0
vn 0 1 0
vn 0 1 0
vn 0 1 0
f 4/4/4 2/2/2 1/1/1 3/3/3
usemtl diffuse_0_0_0_255
v -20 0 -10
v -20 0 -118
v 220 0 -10
v 220 0 -118
v 100 0 -10
v 220 0 -64
v 100 0 -118
v -20 0 -64
v 220 0 -10
v 220 60 -10
v -20 0 -10
v -20 60 -10
v 100 0 -10
v 100 60 -10
v 220 0 -118
v 220 60 -118
v 220 0 -10
v 220 60 -10
v 220 0 -64
v 220 60 -64
v -20 0 -118
v -20 60 -118
v 220 0 -118
v 220 60 -118
v 100 0 -118
v 100 60 -118
v -20 0 -10
v -20 60 -10
v -20 0 -118
v -20 60 -118
v -20 0 -64
v -20 60 -64
v -20 60 -10
v -20 60 -118
v 220 60 -10
v 220 60 -118
v 100 60 -10
v 220 60 -64
v 100 60 -118
v -20 60 -64
vt 0.96405237913131714 0
vt 0.65517240762710571 0
vt 0.96405237913131714 0.68965518474578857
vt 0.65517240762710571 0.68965518474578857
vt 0.96405237913131714 0.34482759237289429
vt 0.80961239337921143 0.68965518474578857
vt 0.65517240762710571 0.34482759237289429
vt 0.80961239337921143 0
vt 0.34336274862289429 0.31034481525421143
vt 0.17241379618644714 0.31034481525421143
vt 0.34336274862289429 0.99853515625
vt 0.17241379618644714 0.99853515625
vt 0.34336274862289429 0.65443998575210571
vt 0.17241379618644714 0.65443998575210571
vt 0.34336274862289429 0
vt 0.17241379618644714 0
vt 0.34336274862289429 0.30887997150421143
vt 0.17241379618644714 0.30887997150421143
vt 0.34336274862289429 0.15443998575210571
vt 0.17241379618644714 0.15443998575210571
vt 0.17094895243644714 0.31034481525421143
vt 0 0.31034481525421143
vt 0.17094895243644714 0.99853515625
vt 0 0.99853515625
vt 0.17094895243644714 0.65443998575210571
vt 0 0.65443998575210571
vt 0.17094895243644714 0
vt 0 0
vt 0.17094895243644714 0.30887997150421143
vt 0 0.30887997150421143
vt 0.17094895243644714 0.15443998575210571
vt 0 0.15443998575210571
vt 0.65370756387710571 0
vt 0.34482759237289429 0
vt 0.65370756387710571 0.68965518474578857
vt 0.34482759237289429 0.68965518474578857
vt 0.65370756387710571 0.34482759237289429
vt 0.499267578125 0.68965518474578857
vt 0.34482759237289429 0.34482759237289429
vt 0.499267578125 0
vn 0 -1 0
vn 0 -1 0
vn 0 -1 0
vn 0 -1 0
vn 0 -1 0
vn 0 -1 0
vn 0 -1 0
vn 0 -1 0
vn 0 0 1
vn 0 0 1
vn 0 0 1
vn 0 0 1
vn 0 0 1
vn 0 0 1
vn 1 0 0
vn 1 0 0
vn 1 0 0
vn 1 0 0
vn 1 0 0
vn 1 0 0
vn 0 0 -1
vn 0 0 -1
vn 0 0 -1
vn 0 0 -1
vn 0 0 -1
vn 0 0 -1
vn -1 0 0
vn -1 0 0
vn -1 0 0
vn -1 0 0
vn -1 0 0
vn -1 0 0
vn 0 1 0
vn 0 1 0
vn 0 1 0
vn 0 1 0
vn 0 1 0
vn 0 1 0
vn 0 1 0
vn 0 1 0
f 9/9/9 5/5/5 12/12/12 6/6/6 11/11/11 8/8/8 10/10/10 7/7/7
f 14/14/14 18/18/18 16/16/16 15/15/15 17/17/17 13/13/13
f 20/20/20 24/24/24 22/22/22 21/21/21 23/23/23 19/19/19
f 26/26/26 30/30/30 28/28/28 27/27/27 29/29/29 25/25/25
f 32/32/32 36/36/36 34/34/34 33/33/33 35/35/35 31/31/31
f 44/44/44 37/37/37 41/41/41 39/39/39 42/42/42 40/40/40 43/43/43 38/38/38
usemtl diffuse_0_0_0_255
v -20 0 -10
v -20 0 -118
v 220 0 -10
v 220 0 -118
vt 0 0
vt 0 1
vt 1 0
vt 1 1
vn 0 1 0
vn 0 1 0
vn 0 1 0
vn 0 1 0
f 48/48/48 46/46/46 45/45/45 47/47/47
usemtl diffuse_0_0_0_255
v -17 0 308
v 223 0 308
v 223 0 200
v -17 0 200
cstype bspline
deg 1
curv 0 696 49 50 51 52 49
parm u 0 0 240 348 588 696 696
end
